<svg width="37" height="32" viewBox="0 0 37 32" fill="none" xmlns="http://www.w3.org/2000/svg">
<path d="M36.4287 0.968109C35.9768 0.41539 35.2998 0.111084 34.5224 0.111084C34.0998 0.111084 33.6521 0.200005 33.192 0.37587L1.87219 12.3316C0.21008 12.9659 -0.013774 13.9178 0.000622646 14.4287C0.0150193 14.9397 0.292508 15.8774 1.98793 16.4169C1.99809 16.42 2.00825 16.4231 2.01841 16.4259L8.51498 18.285L12.0283 28.3317C12.5074 29.7013 13.5826 30.5521 14.8348 30.5521C15.6244 30.5521 16.401 30.2213 17.0807 29.5957L21.0991 25.8958L26.9275 30.5888C26.928 30.5894 26.9289 30.5897 26.9294 30.5902L26.9848 30.6348C26.9899 30.6388 26.9952 30.643 27.0003 30.647C27.6482 31.1495 28.3553 31.4148 29.046 31.4151H29.0463C30.3959 31.4151 31.4706 30.4161 31.7837 28.8703L36.9154 3.531C37.1214 2.51392 36.9487 1.60382 36.4287 0.968109ZM10.6883 17.9319L23.2222 11.5288L15.4178 19.8215C15.2899 19.9573 15.1993 20.1236 15.1547 20.3045L13.6498 26.4002L10.6883 17.9319ZM15.612 28.0008C15.56 28.0485 15.5078 28.0911 15.4556 28.1304L16.8518 22.4756L19.3915 24.5208L15.612 28.0008ZM34.7906 3.10051L29.6589 28.4401C29.6095 28.6825 29.4517 29.2468 29.046 29.2468C28.8456 29.2468 28.5938 29.1376 28.3361 28.9391L21.7317 23.6214C21.7308 23.6206 21.7297 23.6197 21.7286 23.6191L17.7989 20.4547L29.085 8.46228C29.4463 8.07837 29.4791 7.49036 29.1626 7.06863C28.8459 6.64689 28.272 6.51421 27.8026 6.75416L9.2399 16.2373L2.65497 14.3533L33.9652 2.40128C34.2297 2.30022 34.4143 2.27905 34.5224 2.27905C34.5888 2.27905 34.7068 2.28696 34.7505 2.34087C34.8081 2.41116 34.8815 2.65083 34.7906 3.10051Z" fill="white"/>
</svg>
