<svg width="39" height="39" viewBox="0 0 39 39" fill="none" xmlns="http://www.w3.org/2000/svg">
<g clip-path="url(#clip0)">
<path d="M19.7356 31.6875C25.3776 31.6875 23.3659 28.1157 23.8014 27.0888C23.7949 26.3218 23.7884 25.584 23.8144 25.1355C24.1719 25.2362 25.0152 25.6636 26.7572 27.3569C29.4466 30.0706 30.134 31.6875 32.3066 31.6875H36.3057C37.5732 31.6875 38.233 31.1626 38.5629 30.7222C38.8814 30.2965 39.1934 29.549 38.8521 28.3855C37.96 25.584 32.7567 20.7464 32.4334 20.2361C32.4821 20.1419 32.5601 20.0167 32.6007 19.9517H32.5975C33.6245 18.5949 37.544 12.7221 38.1209 10.3724C38.1225 10.3691 38.1241 10.3642 38.1241 10.3594C38.4361 9.28688 38.1501 8.59138 37.8544 8.19813C37.4091 7.60988 36.7006 7.3125 35.7435 7.3125H31.7444C30.4054 7.3125 29.3898 7.98687 28.8763 9.217C28.0166 11.4026 25.6019 15.8974 23.7916 17.4882C23.7364 15.2344 23.7738 13.5135 23.803 12.2346C23.8615 9.74025 24.05 7.3125 21.4614 7.3125H15.1759C13.5541 7.3125 12.0022 9.08375 13.6825 11.1865C15.1515 13.0292 14.2106 14.0562 14.5275 19.1685C13.2925 17.8441 11.0955 14.2675 9.542 9.69637C9.1065 8.45975 8.44675 7.31412 6.58937 7.31412H2.59025C0.9685 7.31412 0 8.19812 0 9.6785C0 13.0032 7.35963 31.6875 19.7356 31.6875ZM6.58937 9.75162C6.942 9.75162 6.97775 9.75163 7.23938 10.4943C8.83025 15.1791 12.3988 22.1114 15.0052 22.1114C16.9634 22.1114 16.9634 20.1045 16.9634 19.3489L16.9618 13.3331C16.8545 11.3425 16.1298 10.3512 15.6536 9.75L21.3541 9.7565C21.3574 9.78413 21.3216 16.4109 21.3704 18.0164C21.3704 20.2962 23.1806 21.6028 26.0065 18.7428C28.9884 15.3774 31.0505 10.3464 31.1334 10.1416C31.2553 9.84913 31.3609 9.75 31.7444 9.75H35.7435H35.7598C35.7581 9.75487 35.7581 9.75975 35.7565 9.76462C35.3909 11.4709 31.7818 16.9081 30.5744 18.5965C30.5549 18.6225 30.537 18.6501 30.5191 18.6778C29.9878 19.5455 29.5555 20.5042 30.5923 21.853H30.5939C30.6881 21.9668 30.9335 22.2332 31.291 22.6038C32.4025 23.751 36.2147 27.6737 36.5527 29.2337C36.3285 29.2695 36.0848 29.2435 32.3066 29.2516C31.5023 29.2516 30.8734 28.0491 28.4732 25.6279C26.3152 23.5284 24.9145 22.6704 23.6389 22.6704C21.1624 22.6704 21.3428 24.6805 21.3655 27.1115C21.3736 29.7472 21.3574 28.9136 21.3752 29.0794C21.2306 29.1363 20.8162 29.25 19.7356 29.25C9.425 29.25 2.7105 12.8846 2.45212 9.7565C2.5415 9.74838 3.77162 9.75325 6.58937 9.75162Z" fill="white"/>
</g>
<defs>
<clipPath id="clip0">
<rect width="39" height="39" fill="white"/>
</clipPath>
</defs>
</svg>
