<svg width="64" height="64" viewBox="0 0 64 64" fill="none" xmlns="http://www.w3.org/2000/svg">
<path d="M56.7343 60.1824H7.2657C3.25966 60.1824 0 56.9227 0 52.9167V10.9758C0 6.96981 3.25966 3.71014 7.2657 3.71014H56.7343C60.7403 3.71014 64 6.96981 64 10.9758V52.9167C64 56.9227 60.7403 60.1824 56.7343 60.1824ZM7.2657 5.8744C4.4529 5.8744 2.16425 8.16304 2.16425 10.9758V52.9167C2.16425 55.7295 4.4529 58.0181 7.2657 58.0181H56.7343C59.5471 58.0181 61.8357 55.7295 61.8357 52.9167V10.9758C61.8357 8.16304 59.5471 5.8744 56.7343 5.8744H7.2657Z" fill="white"/>
<path d="M62.9179 18.1999H1.08213C0.484299 18.1999 0 17.7156 0 17.1178C0 16.5199 0.484299 16.0356 1.08213 16.0356H62.9179C63.5157 16.0356 64 16.5199 64 17.1178C64 17.7156 63.5157 18.1999 62.9179 18.1999Z" fill="white"/>
<path d="M15.6002 14.343C13.7433 14.343 12.2324 12.8327 12.2324 10.9759C12.2324 9.11897 13.7433 7.6087 15.6002 7.6087C17.4571 7.6087 18.9673 9.11897 18.9673 10.9759C18.9673 12.8327 17.4571 14.343 15.6002 14.343ZM15.6002 9.77296C14.9365 9.77296 14.3967 10.3128 14.3967 10.9759C14.3967 11.6389 14.9365 12.1788 15.6002 12.1788C16.2632 12.1788 16.8031 11.6389 16.8031 10.9759C16.8031 10.3128 16.2632 9.77296 15.6002 9.77296Z" fill="white"/>
<path d="M7.80319 14.343C5.94691 14.343 4.43604 12.8327 4.43604 10.9759C4.43604 9.11897 5.94691 7.6087 7.80319 7.6087C9.66007 7.6087 11.1709 9.11897 11.1709 10.9759C11.1709 12.8327 9.66007 14.343 7.80319 14.343ZM7.80319 9.77296C7.14014 9.77296 6.60029 10.3128 6.60029 10.9759C6.60029 11.6389 7.14014 12.1788 7.80319 12.1788C8.46683 12.1788 9.00669 11.6389 9.00669 10.9759C9.00669 10.3128 8.46683 9.77296 7.80319 9.77296Z" fill="white"/>
<path d="M23.3967 14.343C21.5398 14.343 20.0295 12.8327 20.0295 10.9759C20.0295 9.11897 21.5398 7.6087 23.3967 7.6087C25.2536 7.6087 26.7644 9.11897 26.7644 10.9759C26.7644 12.8327 25.2536 14.343 23.3967 14.343ZM23.3967 9.77296C22.733 9.77296 22.1938 10.3128 22.1938 10.9759C22.1938 11.6389 22.7336 12.1788 23.3967 12.1788C24.0603 12.1788 24.6002 11.6389 24.6002 10.9759C24.6002 10.3128 24.0603 9.77296 23.3967 9.77296Z" fill="white"/>
</svg>
