<svg width="64" height="64" viewBox="0 0 64 64" fill="none" xmlns="http://www.w3.org/2000/svg">
<path d="M25.2511 44.8502C25.0093 44.8502 24.7658 44.7671 24.5671 44.5979L17.7299 38.7759C17.494 38.5749 17.3584 38.2812 17.3584 37.9711C17.3584 37.6615 17.4946 37.3679 17.7299 37.1668L24.5671 31.3449C25.0111 30.9664 25.678 31.02 26.0565 31.464C26.4345 31.9086 26.3814 32.5755 25.9368 32.9534L20.0447 37.9711L25.9368 42.9888C26.3814 43.3673 26.4345 44.0342 26.0565 44.4782C25.8472 44.724 25.55 44.8502 25.2511 44.8502Z" fill="white"/>
<path d="M38.7488 44.8502C38.4498 44.8502 38.1527 44.724 37.9439 44.4782C37.5654 44.0342 37.6191 43.3673 38.063 42.9888L43.9551 37.9711L38.063 32.9534C37.6191 32.5755 37.5654 31.9086 37.9439 31.464C38.3219 31.02 38.9893 30.9664 39.4327 31.3449L46.27 37.1668C46.5059 37.3679 46.6415 37.6615 46.6415 37.9711C46.6415 38.2812 46.5059 38.5749 46.27 38.7759L39.4327 44.5979C39.234 44.7671 38.9905 44.8502 38.7488 44.8502Z" fill="white"/>
<path d="M29.5795 49.217C29.507 49.217 29.4339 49.2093 29.3602 49.194C28.7894 49.0737 28.4239 48.5129 28.5441 47.9422L32.8053 27.7105C32.9256 27.1397 33.4858 26.7742 34.0571 26.8944C34.6279 27.0147 34.9934 27.5749 34.8731 28.1462L30.6119 48.3779C30.507 48.8756 30.0683 49.217 29.5795 49.217Z" fill="white"/>
<path d="M56.9057 60.2394H7.09434C3.18278 60.2394 0 57.0572 0 53.1451V10.8679C0 6.95637 3.18278 3.77359 7.09434 3.77359H56.9057C60.8172 3.77359 64 6.95637 64 10.8679V53.1451C64 57.0572 60.8172 60.2394 56.9057 60.2394ZM7.09434 5.8868C4.34788 5.8868 2.11321 8.12147 2.11321 10.8679V53.1451C2.11321 55.8915 4.34788 58.1262 7.09434 58.1262H56.9057C59.6521 58.1262 61.8868 55.8915 61.8868 53.1451V10.8679C61.8868 8.12147 59.6521 5.8868 56.9057 5.8868H7.09434Z" fill="white"/>
<path d="M62.9434 20.6928H1.0566C0.472877 20.6928 0 20.2199 0 19.6362C0 19.0531 0.472877 18.5796 1.0566 18.5796H62.9434C63.5271 18.5796 64 19.0531 64 19.6362C64 20.2199 63.5271 20.6928 62.9434 20.6928Z" fill="white"/>
<path d="M18.053 15.6368C16.2098 15.6368 14.7092 14.1362 14.7092 12.293C14.7092 10.4493 16.2098 8.94928 18.053 8.94928C19.8967 8.94928 21.3967 10.4493 21.3967 12.293C21.3967 14.1362 19.8967 15.6368 18.053 15.6368ZM18.053 11.0625C17.3749 11.0625 16.8224 11.6144 16.8224 12.293C16.8224 12.9717 17.3749 13.5236 18.053 13.5236C18.7316 13.5236 19.2835 12.9717 19.2835 12.293C19.2835 11.6144 18.7316 11.0625 18.053 11.0625Z" fill="white"/>
<path d="M7.77954 15.6044C5.93579 15.6044 4.43579 14.1044 4.43579 12.2606C4.43579 10.4169 5.93579 8.91687 7.77954 8.91687C9.62329 8.91687 11.1233 10.4169 11.1233 12.2606C11.1233 14.1044 9.62329 15.6044 7.77954 15.6044ZM7.77954 11.0301C7.10147 11.0301 6.549 11.5826 6.549 12.2606C6.549 12.9393 7.10147 13.4912 7.77954 13.4912C8.4582 13.4912 9.01008 12.9393 9.01008 12.2606C9.01008 11.5826 8.4582 11.0301 7.77954 11.0301Z" fill="white"/>
<path d="M28.3266 15.6686C26.4834 15.6686 24.9834 14.1686 24.9834 12.3249C24.9834 10.4817 26.4834 8.98172 28.3266 8.98172C30.1703 8.98172 31.6703 10.4817 31.6703 12.3249C31.6703 14.1686 30.1703 15.6686 28.3266 15.6686ZM28.3266 11.0943C27.6485 11.0943 27.0966 11.6462 27.0966 12.3249C27.0966 13.0035 27.6485 13.5554 28.3266 13.5554C29.0052 13.5554 29.5571 13.0035 29.5571 12.3249C29.5571 11.6462 29.0052 11.0943 28.3266 11.0943Z" fill="white"/>
</svg>
